<?xml version="1.0" standalone="no"?>
<!DOCTYPE svg PUBLIC "-//W3C//DTD SVG 20010904//EN"
 "http://www.w3.org/TR/2001/REC-SVG-20010904/DTD/svg10.dtd">
<svg version="1.0" xmlns="http://www.w3.org/2000/svg"
 width="100.000000pt" height="120.000000pt" viewBox="0 0 100.000000 120.000000"
 preserveAspectRatio="xMidYMid meet">

<g transform="translate(0.000000,120.000000) scale(0.100000,-0.100000)"
fill="#000000" stroke="none">
<path d="M60 1101 c0 -70 3 -83 25 -109 30 -36 31 -44 4 -68 -68 -61 -86 -192
-37 -274 14 -25 38 -56 52 -69 18 -17 26 -35 26 -58 0 -40 -6 -40 -70 -8 -27
14 -52 25 -55 25 -13 0 -4 -168 10 -197 20 -40 59 -78 95 -93 17 -7 30 -19 30
-27 0 -29 44 -94 77 -115 21 -12 70 -25 130 -34 66 -9 106 -20 125 -34 l28
-21 28 21 c19 14 59 25 125 34 60 9 109 22 130 34 33 21 77 86 77 115 0 8 13
20 30 27 36 15 75 53 95 93 14 29 23 197 10 197 -3 0 -28 -11 -55 -25 -64 -32
-70 -32 -70 8 0 23 8 41 26 58 14 13 38 44 52 69 49 82 31 213 -37 274 -27 24
-26 32 4 68 22 26 25 39 25 109 0 43 -2 79 -4 79 -2 0 -91 -42 -198 -93 -137
-66 -201 -103 -216 -123 l-22 -29 -22 29 c-15 20 -79 57 -216 123 -107 51
-196 93 -198 93 -2 0 -4 -36 -4 -79z m283 -162 c83 -23 141 -125 120 -212 l-9
-42 46 0 46 0 -9 42 c-34 145 119 267 261 208 77 -33 112 -86 112 -170 0 -107
-57 -175 -155 -183 -76 -6 -120 4 -158 38 l-33 29 -21 -50 c-16 -37 -26 -49
-43 -49 -17 0 -27 12 -43 49 l-21 50 -33 -29 c-38 -34 -82 -44 -158 -38 -63 5
-113 38 -139 91 -20 43 -21 138 -2 175 43 82 139 119 239 91z m-64 -569 c110
-55 204 -107 210 -117 11 -17 11 -17 22 0 11 19 398 217 424 217 22 0 21 -117
-2 -149 -10 -15 -94 -61 -220 -123 -112 -54 -208 -98 -213 -98 -5 0 -101 44
-213 98 -126 62 -210 108 -220 123 -23 32 -24 149 -2 149 8 0 105 -45 214
-100z"/>
<path d="M235 735 c-31 -30 -32 -55 -2 -83 29 -27 61 -28 87 -2 28 28 25 64
-6 89 -34 27 -50 26 -79 -4z"/>
<path d="M686 739 c-31 -25 -34 -61 -6 -89 27 -27 62 -25 88 3 28 30 28 52 -3
82 -29 30 -45 31 -79 4z"/>
</g>
</svg>
